# xmcd CD database file
#
# Track frame offsets:
#	150
#	15722
#	28164
#	39838
#	53636
#	66684
#	81314
#	95047
#	111377
#	124763
#	134443
#	147285
#	158151
#	178208
#	192886
#	208325
#
# Disc length: 2923 seconds
#
# Revision: 5
# Processed by: cddbd v1.5.2PL0 Copyright (c) Steve Scherf et al.
# Submitted via: CDex 1.70beta2
#
DISCID=f30b6910
DTITLE=Gerry Mulligan - The Ultimate Jazz Archive Set 28
DYEAR=2005
DGENRE=Jazz
TTITLE0=It May Be Wrong
TTITLE1=So What
TTITLE2=Westwood Walk
TTITLE3=Flash
TTITLE4=A Ballad
TTITLE5=Ontet
TTITLE6=Half Nelson
TTITLE7=Walkin' Shoes
TTITLE8=Simbah
TTITLE9=Speak Low
TTITLE10=Taking A Chance On Love
TTITLE11=Varsity Drag
TTITLE12=Lady Bird
TTITLE13=Love Me Or Leave Me
TTITLE14=Swing House
TTITLE15=Rocker
EXTD=YEAR: 2005
EXTT0=
EXTT1=
EXTT2=
EXTT3=
EXTT4=
EXTT5=
EXTT6=
EXTT7=
EXTT8=
EXTT9=
EXTT10=
EXTT11=
EXTT12=
EXTT13=
EXTT14=
EXTT15=
PLAYORDER=
